PathFileType	4	(X/Y/Z)	C:/Users/opensim2020/Desktop/walking_exp_matlab/subject02_walking13_straight_02.trc	
DataRate	CameraRate	NumFrames	NumMarkers	Units	OrigDataRate	OrigDataStartFrame	OrigNumFrames	
100.00	100.00	6	41	mm	100.00	975	125	
Frame#	Time	LFHD			RFHD			LBHD			RBHD			C7			T10			CLAV			STRN			RBAK			LSHO			LUPA			LELB			LFRM			LWRA			LWRB			LFIN			RSHO			RUPA			RELB			RFRM			RWRA			RWRB			RFIN			LASI			RASI			LPSI			RPSI			LTHI			LKNE			LTIB			LANK			LHEE			LTOE			RTHI			RKNE			RTIB			RANK			RHEE			RTOE			*39			*40			
		X1	Y1	Z1	X2	Y2	Z2	X3	Y3	Z3	X4	Y4	Z4	X5	Y5	Z5	X6	Y6	Z6	X7	Y7	Z7	X8	Y8	Z8	X9	Y9	Z9	X10	Y10	Z10	X11	Y11	Z11	X12	Y12	Z12	X13	Y13	Z13	X14	Y14	Z14	X15	Y15	Z15	X16	Y16	Z16	X17	Y17	Z17	X18	Y18	Z18	X19	Y19	Z19	X20	Y20	Z20	X21	Y21	Z21	X22	Y22	Z22	X23	Y23	Z23	X24	Y24	Z24	X25	Y25	Z25	X26	Y26	Z26	X27	Y27	Z27	X28	Y28	Z28	X29	Y29	Z29	X30	Y30	Z30	X31	Y31	Z31	X32	Y32	Z32	X33	Y33	Z33	X34	Y34	Z34	X35	Y35	Z35	X36	Y36	Z36	X37	Y37	Z37	X38	Y38	Z38	X39	Y39	Z39	X40	Y40	Z40	X41	Y41	Z41	

110	1.090	1467.80566	-473.13028	1714.22192	1331.05347	-436.64294	1684.16626	1512.15002	-335.10654	1674.08630	1378.74927	-287.72964	1645.55652	1460.42773	-239.96309	1524.32104	1477.29175	-196.67743	1240.92175	1465.42603	-378.52267	1456.16382	1468.16675	-437.19107	1288.50012	1415.95447	-179.28862	1336.89929	1634.54724	-321.21555	1513.37842	1746.72168	-356.50797	1330.32593	1785.14587	-398.29367	1199.58032	1809.46204	-461.85901	1084.67285	1782.05872	-560.56946	989.12604	1820.82068	-520.94598	977.39301	1829.39355	-566.38788	930.45148	1273.82397	-295.94315	1471.25781	1199.92200	-257.72147	1280.48914	1176.24829	-274.79880	1133.98328	1166.50391	-324.01654	1021.62164	1196.33752	-396.71274	909.40436	1162.29248	-353.03934	894.86267	1167.73022	-401.58713	839.72711	1625.89526	-424.42084	991.88849	1374.22913	-433.32333	972.64856	1537.47156	-219.00330	1032.71301	1422.00317	-216.20227	1025.49963	1674.66846	-337.03796	677.59027	1646.31262	-286.42978	478.28958	1650.71362	-216.11656	296.04877	1616.20203	-205.14330	70.95505	1568.57654	-165.21074	42.96378	1619.49072	-361.64645	32.30679	1293.89063	-437.83707	677.59625	1325.22852	-503.02603	483.51486	1337.29626	-437.56512	307.52380	1386.56299	-396.82468	123.23196	1452.74365	-370.37112	72.82967	1347.83020	-530.37592	50.20150	1391.98511	-369.88983	1794.42505	-3357.29321	2845.84937	1034.23865 
111	1.100	1465.82764	-486.47015	1712.51819	1329.45496	-448.89246	1681.86316	1510.84363	-348.00705	1672.81799	1377.29688	-300.41974	1643.96057	1459.34253	-252.61444	1522.90295	1475.90955	-208.81531	1239.57922	1464.13086	-391.08798	1454.40198	1467.63501	-449.43115	1286.66113	1414.52258	-192.30627	1335.21252	1633.05029	-334.41296	1512.41748	1745.84741	-372.47983	1331.06067	1785.09375	-417.57095	1201.54846	1808.80664	-485.18256	1088.84326	1781.67432	-587.68628	997.79480	1820.04919	-548.54004	983.97595	1828.35864	-595.87811	938.70453	1272.35938	-309.02316	1469.17664	1199.12842	-268.97119	1278.80103	1175.58191	-284.19257	1132.14771	1165.27002	-331.27972	1018.76044	1195.04895	-401.31967	905.12451	1160.89478	-357.57318	891.44135	1166.15356	-404.97488	835.55304	1626.47498	-434.77734	989.99390	1374.11633	-446.49551	970.95142	1534.85730	-230.13896	1031.09241	1419.52759	-228.76680	1024.05579	1674.05701	-344.61942	676.44891	1645.28223	-291.48441	477.73355	1649.54919	-218.65405	296.46631	1615.66589	-205.58788	71.29167	1568.04761	-165.50336	43.44981	1619.57666	-361.88086	32.20678	1293.38232	-452.86380	677.34967	1325.67310	-518.56616	482.25613	1336.52063	-464.36874	301.79556	1384.14417	-436.85843	114.39049	1449.97156	-413.95438	62.26745	1345.40454	-575.36780	50.52252	1390.09912	-382.97488	1792.79248	-3357.27734	2845.73877	1034.36816 
112	1.110	1463.55518	-499.38525	1710.39063	1327.41272	-461.54315	1679.57690	1509.06238	-361.08084	1671.23474	1375.77283	-313.06433	1642.19019	1458.06702	-265.54004	1521.25061	1474.25305	-221.03880	1238.00317	1462.80164	-403.75427	1452.60510	1466.92090	-461.82706	1284.68628	1413.58044	-204.43484	1333.74878	1631.40369	-347.60132	1511.47632	1744.78967	-388.34601	1331.70667	1784.71790	-436.42096	1203.40881	1807.80786	-508.40555	1092.97742	1780.72607	-614.16241	1006.38055	1818.86035	-575.45563	990.71753	1826.99939	-624.60913	947.30072	1271.04187	-321.72479	1467.05762	1198.37048	-280.02310	1276.96619	1174.71143	-293.68851	1130.21228	1164.31458	-338.54160	1016.40863	1193.52405	-406.46271	901.11340	1159.60791	-362.15475	888.28119	1164.28687	-409.04749	831.67236	1626.89001	-445.60794	988.17365	1373.63025	-459.75049	969.09723	1532.23474	-241.47342	1029.19861	1417.19824	-241.43671	1022.30542	1673.26221	-352.07874	675.33521	1644.21594	-296.75824	477.19418	1648.35156	-221.52379	296.86694	1615.10852	-206.03035	71.74524	1567.17175	-165.94006	44.36390	1619.62036	-362.09387	32.03415	1293.02429	-467.09085	676.44067	1326.34082	-532.44409	480.40216	1335.74438	-490.27933	296.41235	1381.48401	-476.84082	106.77987	1447.02869	-457.89899	53.85141	1342.42639	-619.63269	51.67252	1387.99707	-396.03329	1790.86243	-3357.38623	2846.06030	1034.41296 
113	1.120	1461.26001	-512.47900	1708.21680	1325.31836	-474.17798	1677.11572	1507.26465	-374.20786	1669.46497	1374.16284	-325.69312	1640.21118	1456.80322	-278.03220	1519.41846	1472.52246	-233.33034	1236.21130	1461.34106	-416.38913	1450.59058	1466.06836	-474.27176	1282.62646	1412.59363	-217.13782	1331.80383	1629.67297	-360.64487	1510.32629	1743.55151	-404.21692	1332.25293	1784.13733	-454.94824	1205.17517	1806.82532	-530.89612	1097.25305	1779.32715	-639.85822	1014.78076	1817.23840	-601.76990	997.46368	1825.47986	-652.61383	956.12866	1269.78345	-334.09103	1464.79370	1197.57837	-290.98892	1275.13916	1173.93018	-302.92200	1128.29028	1163.14282	-345.53464	1013.58923	1191.79846	-411.52701	896.92017	1158.01929	-367.22861	885.22327	1162.42334	-412.76480	827.67859	1626.19763	-456.49335	986.15131	1372.83044	-473.07779	967.12219	1529.67615	-253.11456	1026.97107	1414.91528	-254.16624	1020.17255	1672.48950	-359.56815	674.29010	1643.12756	-302.25128	476.57507	1647.33679	-224.57562	297.32065	1614.55505	-206.48763	72.25234	1566.64819	-166.25977	44.76573	1619.72559	-362.32278	31.89669	1292.63989	-480.75333	674.89343	1326.75854	-545.81165	478.11819	1334.89929	-515.58124	291.43152	1378.82678	-516.87488	101.00577	1443.75806	-501.09879	46.90170	1338.87708	-662.63550	54.31474	1385.65967	-409.11292	1788.56323	-3357.29224	2845.93018	1034.29260 
114	1.130	1458.83398	-525.50635	1705.82837	1323.12329	-486.75537	1674.51062	1505.29810	-387.28973	1667.49438	1372.35266	-338.44537	1638.02966	1455.27100	-290.76624	1517.42688	1470.65845	-245.76622	1234.23743	1459.77380	-429.10666	1448.41516	1465.04590	-486.81918	1280.40674	1411.64685	-229.11351	1329.57031	1627.68738	-373.79150	1508.94849	1742.15552	-419.79700	1332.71570	1783.37146	-473.09595	1206.81958	1805.54114	-552.84058	1101.32251	1777.56946	-664.66797	1023.25696	1815.24402	-627.25208	1004.13904	1823.39917	-679.71826	964.89856	1268.27136	-346.74326	1462.45337	1196.69128	-301.45874	1272.88782	1172.90466	-312.52469	1126.24414	1161.56030	-353.32654	1010.82593	1189.81689	-417.07397	893.01343	1156.14661	-372.26761	882.12030	1160.19385	-417.11856	823.84180	1625.83704	-467.20657	984.41205	1371.84961	-486.46738	965.14014	1527.01404	-264.91702	1024.48804	1412.79688	-266.97485	1017.70544	1671.64844	-367.16302	673.23645	1641.95605	-308.08340	475.98828	1646.21521	-228.04884	297.75366	1613.90112	-206.92857	72.84508	1565.52112	-166.90520	45.61002	1619.85706	-362.47998	31.79470	1292.20874	-493.72321	672.65442	1327.58337	-558.51501	475.26587	1333.90820	-540.39661	287.12680	1375.85376	-555.05841	96.61304	1441.61133	-543.85474	41.93787	1334.65637	-703.89893	58.64855	1383.32739	-422.13208	1786.27417	-3360.41577	2845.22119	1034.25122 
115	1.140	1456.34595	-538.57025	1703.33081	1320.70044	-499.50262	1671.73401	1503.23401	-400.39972	1665.37439	1370.53577	-351.17233	1635.67383	1453.64539	-303.45166	1515.28430	1468.61353	-258.29776	1231.98669	1458.16895	-441.85483	1446.17310	1463.89526	-499.47656	1278.19934	1410.19019	-242.01929	1327.55005	1625.48718	-386.78745	1507.39832	1740.65405	-435.24576	1333.01538	1782.36877	-490.94009	1208.28394	1804.16272	-574.17694	1105.46265	1775.45471	-688.61945	1031.58582	1813.03394	-652.10187	1010.80493	1820.84802	-706.32922	973.65741	1266.91187	-358.80518	1459.93994	1195.64282	-312.24911	1270.70398	1171.94104	-321.77048	1124.15308	1159.98022	-360.67557	1007.97858	1187.52222	-423.13168	889.12811	1154.16370	-377.69177	879.08600	1157.86353	-421.42288	819.93994	1625.11182	-478.91315	982.62061	1370.55530	-500.08780	963.08142	1524.45056	-276.98074	1021.73224	1410.69702	-279.85400	1014.94061	1670.73328	-374.99683	672.03717	1640.83496	-314.46921	475.30627	1645.29358	-231.70326	298.32599	1613.34521	-207.44582	73.58752	1564.96240	-166.91977	46.72050	1619.96460	-362.65637	31.70497	1291.59753	-505.94052	669.87201	1328.26086	-570.61194	472.31778	1332.95728	-564.48627	283.51480	1373.06152	-592.01489	93.75161	1438.49243	-584.99707	38.44191	1330.01501	-742.96893	64.29672	1380.94189	-435.15723	1783.88354	-3360.38354	2845.17358	1034.16089 
